<?xml version="1.0" encoding="UTF-8" standalone="no"?><svg xmlns="http://www.w3.org/2000/svg" xmlns:xlink="http://www.w3.org/1999/xlink" contentStyleType="text/css" height="358px" preserveAspectRatio="none" style="width:968px;height:358px;background:#FFFFFF;" version="1.1" viewBox="0 0 968 358" width="968px" zoomAndPan="magnify"><defs/><g><!--MD5=[e435b28e2d86b927f8aa3030b40e7cad]
cluster Core.Ports.In--><g id="cluster_Core.Ports.In"><path d="M266.5,6 L372.5,6 A3.75,3.75 0 0 1 375,8.5 L382,28.2969 L471.5,28.2969 A2.5,2.5 0 0 1 474,30.7969 L474,102.5 A2.5,2.5 0 0 1 471.5,105 L266.5,105 A2.5,2.5 0 0 1 264,102.5 L264,8.5 A2.5,2.5 0 0 1 266.5,6 " fill="none" style="stroke:#000000;stroke-width:1.5;"/><line style="stroke:#000000;stroke-width:1.5;" x1="264" x2="382" y1="28.2969" y2="28.2969"/><text fill="#000000" font-family="sans-serif" font-size="14" font-weight="bold" lengthAdjust="spacing" textLength="105" x="268" y="20.9951">Core.Ports.In</text></g><!--MD5=[dff52920da2c05bc7b5a5c73b832a239]
cluster Core.Ports.Out--><g id="cluster_Core.Ports.Out"><path d="M497.5,129 L618.5,129 A3.75,3.75 0 0 1 621,131.5 L628,151.2969 L678.5,151.2969 A2.5,2.5 0 0 1 681,153.7969 L681,225.5 A2.5,2.5 0 0 1 678.5,228 L497.5,228 A2.5,2.5 0 0 1 495,225.5 L495,131.5 A2.5,2.5 0 0 1 497.5,129 " fill="none" style="stroke:#000000;stroke-width:1.5;"/><line style="stroke:#000000;stroke-width:1.5;" x1="495" x2="628" y1="151.2969" y2="151.2969"/><text fill="#000000" font-family="sans-serif" font-size="14" font-weight="bold" lengthAdjust="spacing" textLength="120" x="499" y="143.9951">Core.Ports.Out</text></g><!--MD5=[50003bbc5e0796887786d99cc36de142]
cluster Core.Domain--><g id="cluster_Core.Domain"><path d="M312.5,252 L415.5,252 A3.75,3.75 0 0 1 418,254.5 L425,274.2969 L425.5,274.2969 A2.5,2.5 0 0 1 428,276.7969 L428,348.5 A2.5,2.5 0 0 1 425.5,351 L312.5,351 A2.5,2.5 0 0 1 310,348.5 L310,254.5 A2.5,2.5 0 0 1 312.5,252 " fill="none" style="stroke:#000000;stroke-width:1.5;"/><line style="stroke:#000000;stroke-width:1.5;" x1="310" x2="425" y1="274.2969" y2="274.2969"/><text fill="#000000" font-family="sans-serif" font-size="14" font-weight="bold" lengthAdjust="spacing" textLength="102" x="314" y="266.9951">Core.Domain</text></g><!--MD5=[6ec4c0b23606e328e5a79190ff6a06ed]
cluster Adapters.In.PlayerControls--><g id="cluster_Adapters.In.PlayerControls"><path d="M8.5,6 L227.5,6 A3.75,3.75 0 0 1 230,8.5 L237,28.2969 L237.5,28.2969 A2.5,2.5 0 0 1 240,30.7969 L240,225.5 A2.5,2.5 0 0 1 237.5,228 L8.5,228 A2.5,2.5 0 0 1 6,225.5 L6,8.5 A2.5,2.5 0 0 1 8.5,6 " fill="none" style="stroke:#000000;stroke-width:1.5;"/><line style="stroke:#000000;stroke-width:1.5;" x1="6" x2="237" y1="28.2969" y2="28.2969"/><text fill="#000000" font-family="sans-serif" font-size="14" font-weight="bold" lengthAdjust="spacing" textLength="218" x="10" y="20.9951">Adapters.In.PlayerControls</text></g><!--MD5=[0677b39eacb1d4c2be4b6d4fe6ec8cbc]
cluster Adapters.Out.Persistence--><g id="cluster_Adapters.Out.Persistence"><path d="M707.5,129 L916.5,129 A3.75,3.75 0 0 1 919,131.5 L926,151.2969 L958.5,151.2969 A2.5,2.5 0 0 1 961,153.7969 L961,225.5 A2.5,2.5 0 0 1 958.5,228 L707.5,228 A2.5,2.5 0 0 1 705,225.5 L705,131.5 A2.5,2.5 0 0 1 707.5,129 " fill="none" style="stroke:#000000;stroke-width:1.5;"/><line style="stroke:#000000;stroke-width:1.5;" x1="705" x2="926" y1="151.2969" y2="151.2969"/><text fill="#000000" font-family="sans-serif" font-size="14" font-weight="bold" lengthAdjust="spacing" textLength="208" x="709" y="143.9951">Adapters.Out.Persistence</text></g><!--MD5=[2423cb81fe44aafecd4083e8ac879bb4]
cluster Core.Services--><g id="cluster_Core.Services"><path d="M269.5,129 L378.5,129 A3.75,3.75 0 0 1 381,131.5 L388,151.2969 L468.5,151.2969 A2.5,2.5 0 0 1 471,153.7969 L471,225.5 A2.5,2.5 0 0 1 468.5,228 L269.5,228 A2.5,2.5 0 0 1 267,225.5 L267,131.5 A2.5,2.5 0 0 1 269.5,129 " fill="none" style="stroke:#000000;stroke-width:1.5;"/><line style="stroke:#000000;stroke-width:1.5;" x1="267" x2="388" y1="151.2969" y2="151.2969"/><text fill="#000000" font-family="sans-serif" font-size="14" font-weight="bold" lengthAdjust="spacing" textLength="108" x="271" y="143.9951">Core.Services</text></g><!--MD5=[8ebcb0285056d924965a263903d873ae]
class MoveObjectUseCase--><g id="elem_MoveObjectUseCase"><rect codeLine="2" fill="#F1F1F1" height="48" id="MoveObjectUseCase" rx="2.5" ry="2.5" style="stroke:#181818;stroke-width:0.5;" width="177" x="280.5" y="41"/><ellipse cx="295.5" cy="57" fill="#B4A7E5" rx="11" ry="11" style="stroke:#181818;stroke-width:1.0;"/><path d="M296.4531,53.7813 L298.1719,53.7813 C298.5625,53.7813 298.75,53.75 298.875,53.6719 C299.1406,53.5156 299.2813,53.2344 299.2813,52.9375 C299.2813,52.6719 299.1719,52.4063 298.9375,52.2344 C298.7656,52.125 298.625,52.0938 298.1719,52.0938 L293.0313,52.0938 C292.5938,52.0938 292.4688,52.1094 292.3125,52.2031 C292.0625,52.3594 291.9063,52.6563 291.9063,52.9375 C291.9063,53.2188 292.0469,53.4688 292.2656,53.6406 C292.4219,53.75 292.6094,53.7813 293.0313,53.7813 L294.75,53.7813 L294.75,60.2969 L293.0313,60.2969 C292.5938,60.2969 292.4688,60.3125 292.3125,60.4219 C292.0625,60.5781 291.9063,60.8594 291.9063,61.1563 C291.9063,61.4063 292.0469,61.6719 292.2656,61.8281 C292.4219,61.9531 292.625,62 293.0313,62 L298.1719,62 C298.9219,62 299.2813,61.7188 299.2813,61.1563 C299.2813,60.875 299.1719,60.625 298.9375,60.4531 C298.7656,60.3281 298.625,60.2969 298.1719,60.2969 L296.4531,60.2969 L296.4531,53.7813 Z " fill="#000000"/><text fill="#000000" font-family="sans-serif" font-size="14" font-style="italic" lengthAdjust="spacing" textLength="145" x="309.5" y="61.8467">MoveObjectUseCase</text><line style="stroke:#181818;stroke-width:0.5;" x1="281.5" x2="456.5" y1="73" y2="73"/><line style="stroke:#181818;stroke-width:0.5;" x1="281.5" x2="456.5" y1="81" y2="81"/></g><!--MD5=[36ad99e19ff6be2390b14fff53d6ff6d]
class ObjectRepository--><g id="elem_ObjectRepository"><rect codeLine="6" fill="#F1F1F1" height="48" id="ObjectRepository" rx="2.5" ry="2.5" style="stroke:#181818;stroke-width:0.5;" width="154" x="511" y="164"/><ellipse cx="526" cy="180" fill="#B4A7E5" rx="11" ry="11" style="stroke:#181818;stroke-width:1.0;"/><path d="M526.9531,176.7813 L528.6719,176.7813 C529.0625,176.7813 529.25,176.75 529.375,176.6719 C529.6406,176.5156 529.7813,176.2344 529.7813,175.9375 C529.7813,175.6719 529.6719,175.4063 529.4375,175.2344 C529.2656,175.125 529.125,175.0938 528.6719,175.0938 L523.5313,175.0938 C523.0938,175.0938 522.9688,175.1094 522.8125,175.2031 C522.5625,175.3594 522.4063,175.6563 522.4063,175.9375 C522.4063,176.2188 522.5469,176.4688 522.7656,176.6406 C522.9219,176.75 523.1094,176.7813 523.5313,176.7813 L525.25,176.7813 L525.25,183.2969 L523.5313,183.2969 C523.0938,183.2969 522.9688,183.3125 522.8125,183.4219 C522.5625,183.5781 522.4063,183.8594 522.4063,184.1563 C522.4063,184.4063 522.5469,184.6719 522.7656,184.8281 C522.9219,184.9531 523.125,185 523.5313,185 L528.6719,185 C529.4219,185 529.7813,184.7188 529.7813,184.1563 C529.7813,183.875 529.6719,183.625 529.4375,183.4531 C529.2656,183.3281 529.125,183.2969 528.6719,183.2969 L526.9531,183.2969 L526.9531,176.7813 Z " fill="#000000"/><text fill="#000000" font-family="sans-serif" font-size="14" font-style="italic" lengthAdjust="spacing" textLength="122" x="540" y="184.8467">ObjectRepository</text><line style="stroke:#181818;stroke-width:0.5;" x1="512" x2="664" y1="196" y2="196"/><line style="stroke:#181818;stroke-width:0.5;" x1="512" x2="664" y1="204" y2="204"/></g><!--MD5=[aa7f586532e18719e6cefa70fc650583]
class Object--><g id="elem_Object"><rect codeLine="10" fill="#F1F1F1" height="48" id="Object" rx="2.5" ry="2.5" style="stroke:#181818;stroke-width:0.5;" width="81" x="328.5" y="287"/><ellipse cx="343.5" cy="303" fill="#ADD1B2" rx="11" ry="11" style="stroke:#181818;stroke-width:1.0;"/><path d="M345.8438,298.6719 C344.9063,298.2344 344.3125,298.0938 343.4375,298.0938 C340.8125,298.0938 338.8125,300.1719 338.8125,302.8906 L338.8125,304.0156 C338.8125,306.5938 340.9219,308.4844 343.8125,308.4844 C345.0313,308.4844 346.1875,308.1875 346.9375,307.6406 C347.5156,307.2344 347.8438,306.7813 347.8438,306.3906 C347.8438,305.9375 347.4531,305.5469 346.9844,305.5469 C346.7656,305.5469 346.5625,305.625 346.375,305.8125 C345.9219,306.2969 345.9219,306.2969 345.7344,306.3906 C345.3125,306.6563 344.625,306.7813 343.8594,306.7813 C341.8125,306.7813 340.5156,305.6875 340.5156,303.9844 L340.5156,302.8906 C340.5156,301.1094 341.7656,299.7969 343.5,299.7969 C344.0781,299.7969 344.6875,299.9531 345.1563,300.2031 C345.6406,300.4844 345.8125,300.7031 345.9063,301.1094 C345.9688,301.5156 346,301.6406 346.1406,301.7656 C346.2813,301.9063 346.5156,302.0156 346.7344,302.0156 C347,302.0156 347.2656,301.875 347.4375,301.6563 C347.5469,301.5 347.5781,301.3125 347.5781,300.8906 L347.5781,299.4688 C347.5781,299.0313 347.5625,298.9063 347.4688,298.75 C347.3125,298.4844 347.0313,298.3438 346.7344,298.3438 C346.4375,298.3438 346.2344,298.4375 346.0156,298.75 L345.8438,298.6719 Z " fill="#000000"/><text fill="#000000" font-family="sans-serif" font-size="14" lengthAdjust="spacing" textLength="49" x="357.5" y="307.8467">Object</text><line style="stroke:#181818;stroke-width:0.5;" x1="329.5" x2="408.5" y1="319" y2="319"/><line style="stroke:#181818;stroke-width:0.5;" x1="329.5" x2="408.5" y1="327" y2="327"/></g><!--MD5=[c4850a6ad93a5ce8ead98695cc278a61]
class MoveObjectController--><g id="elem_MoveObjectController"><rect fill="#F1F1F1" height="48" id="MoveObjectController" rx="2.5" ry="2.5" style="stroke:#181818;stroke-width:0.5;" width="192" x="32" y="41"/><ellipse cx="47" cy="57" fill="#ADD1B2" rx="11" ry="11" style="stroke:#181818;stroke-width:1.0;"/><path d="M49.3438,52.6719 C48.4063,52.2344 47.8125,52.0938 46.9375,52.0938 C44.3125,52.0938 42.3125,54.1719 42.3125,56.8906 L42.3125,58.0156 C42.3125,60.5938 44.4219,62.4844 47.3125,62.4844 C48.5313,62.4844 49.6875,62.1875 50.4375,61.6406 C51.0156,61.2344 51.3438,60.7813 51.3438,60.3906 C51.3438,59.9375 50.9531,59.5469 50.4844,59.5469 C50.2656,59.5469 50.0625,59.625 49.875,59.8125 C49.4219,60.2969 49.4219,60.2969 49.2344,60.3906 C48.8125,60.6563 48.125,60.7813 47.3594,60.7813 C45.3125,60.7813 44.0156,59.6875 44.0156,57.9844 L44.0156,56.8906 C44.0156,55.1094 45.2656,53.7969 47,53.7969 C47.5781,53.7969 48.1875,53.9531 48.6563,54.2031 C49.1406,54.4844 49.3125,54.7031 49.4063,55.1094 C49.4688,55.5156 49.5,55.6406 49.6406,55.7656 C49.7813,55.9063 50.0156,56.0156 50.2344,56.0156 C50.5,56.0156 50.7656,55.875 50.9375,55.6563 C51.0469,55.5 51.0781,55.3125 51.0781,54.8906 L51.0781,53.4688 C51.0781,53.0313 51.0625,52.9063 50.9688,52.75 C50.8125,52.4844 50.5313,52.3438 50.2344,52.3438 C49.9375,52.3438 49.7344,52.4375 49.5156,52.75 L49.3438,52.6719 Z " fill="#000000"/><text fill="#000000" font-family="sans-serif" font-size="14" lengthAdjust="spacing" textLength="160" x="61" y="61.8467">MoveObjectController</text><line style="stroke:#181818;stroke-width:0.5;" x1="33" x2="223" y1="73" y2="73"/><line style="stroke:#181818;stroke-width:0.5;" x1="33" x2="223" y1="81" y2="81"/></g><!--MD5=[ae619112783392c86a07b14b4ac5d93c]
class MoveObjectCommand--><g id="elem_MoveObjectCommand"><rect fill="#F1F1F1" height="48" id="MoveObjectCommand" rx="2.5" ry="2.5" style="stroke:#181818;stroke-width:0.5;" width="192" x="32" y="164"/><ellipse cx="47" cy="180" fill="#ADD1B2" rx="11" ry="11" style="stroke:#181818;stroke-width:1.0;"/><path d="M49.3438,175.6719 C48.4063,175.2344 47.8125,175.0938 46.9375,175.0938 C44.3125,175.0938 42.3125,177.1719 42.3125,179.8906 L42.3125,181.0156 C42.3125,183.5938 44.4219,185.4844 47.3125,185.4844 C48.5313,185.4844 49.6875,185.1875 50.4375,184.6406 C51.0156,184.2344 51.3438,183.7813 51.3438,183.3906 C51.3438,182.9375 50.9531,182.5469 50.4844,182.5469 C50.2656,182.5469 50.0625,182.625 49.875,182.8125 C49.4219,183.2969 49.4219,183.2969 49.2344,183.3906 C48.8125,183.6563 48.125,183.7813 47.3594,183.7813 C45.3125,183.7813 44.0156,182.6875 44.0156,180.9844 L44.0156,179.8906 C44.0156,178.1094 45.2656,176.7969 47,176.7969 C47.5781,176.7969 48.1875,176.9531 48.6563,177.2031 C49.1406,177.4844 49.3125,177.7031 49.4063,178.1094 C49.4688,178.5156 49.5,178.6406 49.6406,178.7656 C49.7813,178.9063 50.0156,179.0156 50.2344,179.0156 C50.5,179.0156 50.7656,178.875 50.9375,178.6563 C51.0469,178.5 51.0781,178.3125 51.0781,177.8906 L51.0781,176.4688 C51.0781,176.0313 51.0625,175.9063 50.9688,175.75 C50.8125,175.4844 50.5313,175.3438 50.2344,175.3438 C49.9375,175.3438 49.7344,175.4375 49.5156,175.75 L49.3438,175.6719 Z " fill="#000000"/><text fill="#000000" font-family="sans-serif" font-size="14" lengthAdjust="spacing" textLength="160" x="61" y="184.8467">MoveObjectCommand</text><line style="stroke:#181818;stroke-width:0.5;" x1="33" x2="223" y1="196" y2="196"/><line style="stroke:#181818;stroke-width:0.5;" x1="33" x2="223" y1="204" y2="204"/></g><!--MD5=[ea007e4d985a424cbc89a687109fe1d1]
class ObjectPersistenceAdapter--><g id="elem_ObjectPersistenceAdapter"><rect fill="#F1F1F1" height="48" id="ObjectPersistenceAdapter" rx="2.5" ry="2.5" style="stroke:#181818;stroke-width:0.5;" width="224" x="721" y="164"/><ellipse cx="736" cy="180" fill="#ADD1B2" rx="11" ry="11" style="stroke:#181818;stroke-width:1.0;"/><path d="M738.3438,175.6719 C737.4063,175.2344 736.8125,175.0938 735.9375,175.0938 C733.3125,175.0938 731.3125,177.1719 731.3125,179.8906 L731.3125,181.0156 C731.3125,183.5938 733.4219,185.4844 736.3125,185.4844 C737.5313,185.4844 738.6875,185.1875 739.4375,184.6406 C740.0156,184.2344 740.3438,183.7813 740.3438,183.3906 C740.3438,182.9375 739.9531,182.5469 739.4844,182.5469 C739.2656,182.5469 739.0625,182.625 738.875,182.8125 C738.4219,183.2969 738.4219,183.2969 738.2344,183.3906 C737.8125,183.6563 737.125,183.7813 736.3594,183.7813 C734.3125,183.7813 733.0156,182.6875 733.0156,180.9844 L733.0156,179.8906 C733.0156,178.1094 734.2656,176.7969 736,176.7969 C736.5781,176.7969 737.1875,176.9531 737.6563,177.2031 C738.1406,177.4844 738.3125,177.7031 738.4063,178.1094 C738.4688,178.5156 738.5,178.6406 738.6406,178.7656 C738.7813,178.9063 739.0156,179.0156 739.2344,179.0156 C739.5,179.0156 739.7656,178.875 739.9375,178.6563 C740.0469,178.5 740.0781,178.3125 740.0781,177.8906 L740.0781,176.4688 C740.0781,176.0313 740.0625,175.9063 739.9688,175.75 C739.8125,175.4844 739.5313,175.3438 739.2344,175.3438 C738.9375,175.3438 738.7344,175.4375 738.5156,175.75 L738.3438,175.6719 Z " fill="#000000"/><text fill="#000000" font-family="sans-serif" font-size="14" lengthAdjust="spacing" textLength="192" x="750" y="184.8467">ObjectPersistenceAdapter</text><line style="stroke:#181818;stroke-width:0.5;" x1="722" x2="944" y1="196" y2="196"/><line style="stroke:#181818;stroke-width:0.5;" x1="722" x2="944" y1="204" y2="204"/></g><!--MD5=[aad4c0716dbb38c3717b67704960e7c9]
class MoveObjectService--><g id="elem_MoveObjectService"><rect codeLine="23" fill="#F1F1F1" height="48" id="MoveObjectService" rx="2.5" ry="2.5" style="stroke:#181818;stroke-width:0.5;" width="172" x="283" y="164"/><ellipse cx="298" cy="180" fill="#ADD1B2" rx="11" ry="11" style="stroke:#181818;stroke-width:1.0;"/><path d="M300.3438,175.6719 C299.4063,175.2344 298.8125,175.0938 297.9375,175.0938 C295.3125,175.0938 293.3125,177.1719 293.3125,179.8906 L293.3125,181.0156 C293.3125,183.5938 295.4219,185.4844 298.3125,185.4844 C299.5313,185.4844 300.6875,185.1875 301.4375,184.6406 C302.0156,184.2344 302.3438,183.7813 302.3438,183.3906 C302.3438,182.9375 301.9531,182.5469 301.4844,182.5469 C301.2656,182.5469 301.0625,182.625 300.875,182.8125 C300.4219,183.2969 300.4219,183.2969 300.2344,183.3906 C299.8125,183.6563 299.125,183.7813 298.3594,183.7813 C296.3125,183.7813 295.0156,182.6875 295.0156,180.9844 L295.0156,179.8906 C295.0156,178.1094 296.2656,176.7969 298,176.7969 C298.5781,176.7969 299.1875,176.9531 299.6563,177.2031 C300.1406,177.4844 300.3125,177.7031 300.4063,178.1094 C300.4688,178.5156 300.5,178.6406 300.6406,178.7656 C300.7813,178.9063 301.0156,179.0156 301.2344,179.0156 C301.5,179.0156 301.7656,178.875 301.9375,178.6563 C302.0469,178.5 302.0781,178.3125 302.0781,177.8906 L302.0781,176.4688 C302.0781,176.0313 302.0625,175.9063 301.9688,175.75 C301.8125,175.4844 301.5313,175.3438 301.2344,175.3438 C300.9375,175.3438 300.7344,175.4375 300.5156,175.75 L300.3438,175.6719 Z " fill="#000000"/><text fill="#000000" font-family="sans-serif" font-size="14" lengthAdjust="spacing" textLength="140" x="312" y="184.8467">MoveObjectService</text><line style="stroke:#181818;stroke-width:0.5;" x1="284" x2="454" y1="196" y2="196"/><line style="stroke:#181818;stroke-width:0.5;" x1="284" x2="454" y1="204" y2="204"/></g><!--MD5=[25c61431fbf8f273aa8d2025246effda]
link MoveObjectController to MoveObjectUseCase--><g id="link_MoveObjectController_MoveObjectUseCase"><path codeLine="14" d="M224.023,65 C241.045,65 258.067,65 275.089,65 " fill="none" id="MoveObjectController-to-MoveObjectUseCase" style="stroke:#181818;stroke-width:1.0;"/><polygon fill="#181818" points="280.372,65,271.372,61,275.372,65,271.372,69,280.372,65" style="stroke:#181818;stroke-width:1.0;"/></g><!--MD5=[820d288697c7ac5e0e8a401608f4eaaf]
link MoveObjectController to MoveObjectCommand--><g id="link_MoveObjectController_MoveObjectCommand"><path codeLine="15" d="M128,89.044 C128,108.766 128,137.243 128,158.414 " fill="none" id="MoveObjectController-to-MoveObjectCommand" style="stroke:#181818;stroke-width:1.0;"/><polygon fill="#181818" points="128,163.63,132,154.63,128,158.63,124,154.63,128,163.63" style="stroke:#181818;stroke-width:1.0;"/></g><!--MD5=[ad87376359173543d5f253707a17cc53]
reverse link ObjectRepository to ObjectPersistenceAdapter--><g id="link_ObjectRepository_ObjectPersistenceAdapter"><path codeLine="19" d="M685.083,188 C696.991,188 708.9,188 720.809,188 " fill="none" id="ObjectRepository-backto-ObjectPersistenceAdapter" style="stroke:#181818;stroke-width:1.0;"/><polygon fill="none" points="685.041,195,665.041,188,685.041,181,685.041,195" style="stroke:#181818;stroke-width:1.0;"/></g><!--MD5=[513b2408a40cedd89ee3f6340d824b7e]
reverse link MoveObjectUseCase to MoveObjectService--><g id="link_MoveObjectUseCase_MoveObjectService"><path codeLine="24" d="M369,109.083 C369,127.459 369,148.178 369,163.63 " fill="none" id="MoveObjectUseCase-backto-MoveObjectService" style="stroke:#181818;stroke-width:1.0;"/><polygon fill="none" points="362,109.044,369,89.044,376,109.044,362,109.044" style="stroke:#181818;stroke-width:1.0;"/></g><!--MD5=[a7dbe9cb20eeecde559fb743e2d9430e]
link MoveObjectService to ObjectRepository--><g id="link_MoveObjectService_ObjectRepository"><path codeLine="25" d="M455.402,188 C472.144,188 488.886,188 505.628,188 " fill="none" id="MoveObjectService-to-ObjectRepository" style="stroke:#181818;stroke-width:1.0;"/><polygon fill="#181818" points="510.824,188,501.824,184,505.824,188,501.824,192,510.824,188" style="stroke:#181818;stroke-width:1.0;"/></g><!--MD5=[2b9bf7a4b727e6e46f0adb3b6bb3ec92]
link MoveObjectService to Object--><g id="link_MoveObjectService_Object"><path codeLine="26" d="M369,212.044 C369,231.766 369,260.243 369,281.4143 " fill="none" id="MoveObjectService-to-Object" style="stroke:#181818;stroke-width:1.0;"/><polygon fill="#181818" points="369,286.6297,373,277.6297,369,281.6297,365,277.6297,369,286.6297" style="stroke:#181818;stroke-width:1.0;"/></g><!--MD5=[e22395d845312ba08d37884b2e49d71d]
@startuml
package Core.Ports.In {
  Interface MoveObjectUseCase
}

package Core.Ports.Out {
  Interface ObjectRepository
}

package Core.Domain {
  class Object
}

package Adapters.In.PlayerControls {
  MoveObjectController -right-> MoveObjectUseCase
  MoveObjectController -down-> MoveObjectCommand
}

package Adapters.Out.Persistence {
  ObjectPersistenceAdapter -left-|> ObjectRepository
}

package Core.Services {
  class MoveObjectService
  MoveObjectService -up-|> MoveObjectUseCase
  MoveObjectService -right-> ObjectRepository
  MoveObjectService -down-> Object
}
@enduml

PlantUML version 1.2022.10beta1(Unknown compile time)
(GPL source distribution)
Java Runtime: Java(TM) SE Runtime Environment
JVM: Java HotSpot(TM) 64-Bit Server VM
Default Encoding: UTF-8
Language: en
Country: US
--></g></svg>